<svg width="180" height="24" viewBox="0 0 180 24" fill="none" xmlns="http://www.w3.org/2000/svg">
<path d="M8.08 18.5C8 18.5 7.91333 18.4733 7.82 18.42C7.74 18.3667 7.66667 18.3267 7.6 18.3L1.3 13.96C1.1 13.8267 0.953333 13.6933 0.86 13.56C0.766667 13.4133 0.72 13.2467 0.72 13.06V12.7C0.72 12.5133 0.766667 12.3533 0.86 12.22C0.953333 12.0867 1.1 11.9467 1.3 11.8L7.6 7.48C7.66667 7.44 7.74 7.39333 7.82 7.34C7.91333 7.28667 8 7.26 8.08 7.26C8.18667 7.26 8.28 7.3 8.36 7.38C8.44 7.44667 8.48 7.54667 8.48 7.68V8.56C8.48 8.70667 8.44 8.83333 8.36 8.94C8.28 9.03333 8.16667 9.12667 8.02 9.22L2.66 12.88L8.02 16.54C8.16667 16.6467 8.28 16.7467 8.36 16.84C8.44 16.9333 8.48 17.06 8.48 17.22V18.1C8.48 18.22 8.44 18.32 8.36 18.4C8.28 18.4667 8.18667 18.5 8.08 18.5Z" fill="#50A2FF"/>
<path d="M16.86 19C16.7267 19 16.6067 18.9533 16.5 18.86C16.4067 18.7667 16.36 18.6467 16.36 18.5V11.22H14.84C14.6933 11.22 14.5733 11.1733 14.48 11.08C14.3867 10.9867 14.34 10.8667 14.34 10.72V9.1C14.34 8.95333 14.3867 8.83333 14.48 8.74C14.5733 8.64667 14.6933 8.6 14.84 8.6H16.36V7.96C16.36 7.05333 16.5333 6.32667 16.88 5.78C17.24 5.22 17.7467 4.82 18.4 4.58C19.0533 4.32667 19.8333 4.2 20.74 4.2H22.3C22.4333 4.2 22.5467 4.24667 22.64 4.34C22.7467 4.43333 22.8 4.55333 22.8 4.7V6.32C22.8 6.46667 22.7467 6.58667 22.64 6.68C22.5467 6.77333 22.4333 6.82 22.3 6.82H20.9C20.4467 6.82 20.1267 6.92667 19.94 7.14C19.7667 7.35333 19.68 7.66 19.68 8.06V8.6H22.1C22.2333 8.6 22.3467 8.64667 22.44 8.74C22.5467 8.83333 22.6 8.95333 22.6 9.1V10.72C22.6 10.8667 22.5467 10.9867 22.44 11.08C22.3467 11.1733 22.2333 11.22 22.1 11.22H19.68V18.5C19.68 18.6467 19.6333 18.7667 19.54 18.86C19.4467 18.9533 19.3267 19 19.18 19H16.86ZM28.6909 19.2C27.1176 19.2 25.8643 18.7733 24.9309 17.92C23.9976 17.0667 23.5109 15.8 23.4709 14.12C23.4709 14.0267 23.4709 13.9067 23.4709 13.76C23.4709 13.6133 23.4709 13.5 23.4709 13.42C23.5109 12.3667 23.7443 11.4667 24.1709 10.72C24.6109 9.96 25.2109 9.38667 25.9709 9C26.7443 8.6 27.6443 8.4 28.6709 8.4C29.8443 8.4 30.8109 8.63333 31.5709 9.1C32.3443 9.56667 32.9243 10.2 33.3109 11C33.6976 11.8 33.8909 12.7133 33.8909 13.74V14.22C33.8909 14.3667 33.8376 14.4867 33.7309 14.58C33.6376 14.6733 33.5243 14.72 33.3909 14.72H26.9909C26.9909 14.7333 26.9909 14.7533 26.9909 14.78C26.9909 14.8067 26.9909 14.8333 26.9909 14.86C27.0043 15.2467 27.0709 15.6 27.1909 15.92C27.3109 16.24 27.4976 16.4933 27.7509 16.68C28.0043 16.8667 28.3109 16.96 28.6709 16.96C28.9376 16.96 29.1576 16.92 29.3309 16.84C29.5176 16.7467 29.6709 16.6467 29.7909 16.54C29.9109 16.42 30.0043 16.32 30.0709 16.24C30.1909 16.1067 30.2843 16.0267 30.3509 16C30.4309 15.96 30.5509 15.94 30.7109 15.94H33.1909C33.3243 15.94 33.4309 15.98 33.5109 16.06C33.6043 16.1267 33.6443 16.2267 33.6309 16.36C33.6176 16.5867 33.5043 16.86 33.2909 17.18C33.0776 17.5 32.7643 17.82 32.3509 18.14C31.9509 18.4467 31.4443 18.7 30.8309 18.9C30.2176 19.1 29.5043 19.2 28.6909 19.2ZM26.9909 12.74H30.3709V12.7C30.3709 12.2733 30.3043 11.9 30.1709 11.58C30.0509 11.26 29.8576 11.0133 29.5909 10.84C29.3376 10.6667 29.0309 10.58 28.6709 10.58C28.3109 10.58 28.0043 10.6667 27.7509 10.84C27.5109 11.0133 27.3243 11.26 27.1909 11.58C27.0576 11.9 26.9909 12.2733 26.9909 12.7V12.74ZM36.2659 19C36.1193 19 35.9993 18.9533 35.9059 18.86C35.8126 18.7667 35.7659 18.6467 35.7659 18.5V9.1C35.7659 8.96667 35.8126 8.85333 35.9059 8.76C35.9993 8.65333 36.1193 8.6 36.2659 8.6H38.5659C38.7126 8.6 38.8326 8.65333 38.9259 8.76C39.0193 8.85333 39.0659 8.96667 39.0659 9.1V9.9C39.4259 9.48667 39.8526 9.16667 40.3459 8.94C40.8526 8.71333 41.4193 8.6 42.0459 8.6H42.9259C43.0593 8.6 43.1726 8.64667 43.2659 8.74C43.3726 8.83333 43.4259 8.95333 43.4259 9.1V11.16C43.4259 11.2933 43.3726 11.4133 43.2659 11.52C43.1726 11.6133 43.0593 11.66 42.9259 11.66H40.9859C40.4393 11.66 40.0126 11.8133 39.7059 12.12C39.4126 12.4133 39.2659 12.8333 39.2659 13.38V18.5C39.2659 18.6467 39.2126 18.7667 39.1059 18.86C39.0126 18.9533 38.8926 19 38.7459 19H36.2659ZM45.348 19C45.2013 19 45.0813 18.9533 44.988 18.86C44.8946 18.7667 44.848 18.6467 44.848 18.5V9.1C44.848 8.95333 44.8946 8.83333 44.988 8.74C45.0813 8.64667 45.2013 8.6 45.348 8.6H47.648C47.7946 8.6 47.9146 8.64667 48.008 8.74C48.1013 8.83333 48.148 8.95333 48.148 9.1V9.86C48.4946 9.44667 48.948 9.1 49.508 8.82C50.068 8.54 50.728 8.4 51.488 8.4C52.2613 8.4 52.9413 8.57333 53.528 8.92C54.128 9.26667 54.5946 9.78 54.928 10.46C55.2746 11.1267 55.448 11.9467 55.448 12.92V18.5C55.448 18.6467 55.3946 18.7667 55.288 18.86C55.1946 18.9533 55.0813 19 54.948 19H52.428C52.2946 19 52.1746 18.9533 52.068 18.86C51.9746 18.7667 51.928 18.6467 51.928 18.5V13.04C51.928 12.4133 51.7746 11.9333 51.468 11.6C51.1746 11.2533 50.7346 11.08 50.148 11.08C49.6013 11.08 49.1613 11.2533 48.828 11.6C48.508 11.9333 48.348 12.4133 48.348 13.04V18.5C48.348 18.6467 48.2946 18.7667 48.188 18.86C48.0946 18.9533 47.9813 19 47.848 19H45.348ZM60.8 19.2C60.08 19.2 59.4333 19.0667 58.86 18.8C58.3 18.52 57.8533 18.1467 57.52 17.68C57.1867 17.2133 57.02 16.6867 57.02 16.1C57.02 15.1533 57.4067 14.4067 58.18 13.86C58.9533 13.3 59.98 12.92 61.26 12.72L63.76 12.34V12.06C63.76 11.58 63.66 11.2133 63.46 10.96C63.26 10.7067 62.8933 10.58 62.36 10.58C61.9867 10.58 61.68 10.6533 61.44 10.8C61.2133 10.9467 61.0333 11.1467 60.9 11.4C60.78 11.5733 60.6133 11.66 60.4 11.66H58.16C58.0133 11.66 57.9 11.62 57.82 11.54C57.74 11.4467 57.7067 11.34 57.72 11.22C57.72 10.98 57.8067 10.7067 57.98 10.4C58.1667 10.08 58.4467 9.76667 58.82 9.46C59.1933 9.15333 59.6733 8.9 60.26 8.7C60.8467 8.5 61.5533 8.4 62.38 8.4C63.2467 8.4 63.9867 8.5 64.6 8.7C65.2133 8.9 65.7067 9.18 66.08 9.54C66.4667 9.9 66.7533 10.3267 66.94 10.82C67.1267 11.3 67.22 11.8333 67.22 12.42V18.5C67.22 18.6467 67.1667 18.7667 67.06 18.86C66.9667 18.9533 66.8533 19 66.72 19H64.4C64.2533 19 64.1333 18.9533 64.04 18.86C63.9467 18.7667 63.9 18.6467 63.9 18.5V17.8C63.7267 18.0533 63.4933 18.2867 63.2 18.5C62.9067 18.7133 62.56 18.88 62.16 19C61.7733 19.1333 61.32 19.2 60.8 19.2ZM61.74 16.92C62.1267 16.92 62.4733 16.84 62.78 16.68C63.1 16.5067 63.3467 16.2467 63.52 15.9C63.7067 15.54 63.8 15.0933 63.8 14.56V14.28L62.1 14.58C61.4733 14.6867 61.0133 14.8533 60.72 15.08C60.44 15.2933 60.3 15.5467 60.3 15.84C60.3 16.0667 60.3667 16.26 60.5 16.42C60.6333 16.58 60.8067 16.7067 61.02 16.8C61.2333 16.88 61.4733 16.92 61.74 16.92ZM69.9769 19C69.8302 19 69.7102 18.9533 69.6169 18.86C69.5235 18.7667 69.4769 18.6467 69.4769 18.5V9.1C69.4769 8.95333 69.5235 8.83333 69.6169 8.74C69.7102 8.64667 69.8302 8.6 69.9769 8.6H72.2769C72.4235 8.6 72.5435 8.64667 72.6369 8.74C72.7302 8.83333 72.7769 8.95333 72.7769 9.1V9.86C73.1235 9.44667 73.5769 9.1 74.1369 8.82C74.6969 8.54 75.3569 8.4 76.1169 8.4C76.8902 8.4 77.5702 8.57333 78.1569 8.92C78.7569 9.26667 79.2235 9.78 79.5569 10.46C79.9035 11.1267 80.0769 11.9467 80.0769 12.92V18.5C80.0769 18.6467 80.0235 18.7667 79.9169 18.86C79.8235 18.9533 79.7102 19 79.5769 19H77.0569C76.9235 19 76.8035 18.9533 76.6969 18.86C76.6035 18.7667 76.5569 18.6467 76.5569 18.5V13.04C76.5569 12.4133 76.4035 11.9333 76.0969 11.6C75.8035 11.2533 75.3635 11.08 74.7769 11.08C74.2302 11.08 73.7902 11.2533 73.4569 11.6C73.1369 11.9333 72.9769 12.4133 72.9769 13.04V18.5C72.9769 18.6467 72.9235 18.7667 72.8169 18.86C72.7235 18.9533 72.6102 19 72.4769 19H69.9769ZM86.1889 19.2C85.5489 19.2 84.9689 19.1 84.4489 18.9C83.9422 18.6867 83.5022 18.38 83.1289 17.98C82.7689 17.5667 82.4889 17.0733 82.2889 16.5C82.0889 15.9133 81.9756 15.2467 81.9489 14.5C81.9356 14.2333 81.9289 14 81.9289 13.8C81.9289 13.5867 81.9356 13.3533 81.9489 13.1C81.9756 12.38 82.0889 11.7333 82.2889 11.16C82.4889 10.5867 82.7689 10.0933 83.1289 9.68C83.4889 9.26667 83.9289 8.95333 84.4489 8.74C84.9689 8.51333 85.5489 8.4 86.1889 8.4C86.8556 8.4 87.4289 8.51333 87.9089 8.74C88.3889 8.95333 88.7956 9.23333 89.1289 9.58V5.3C89.1289 5.15333 89.1756 5.03333 89.2689 4.94C89.3622 4.84667 89.4822 4.8 89.6289 4.8H92.0689C92.2022 4.8 92.3156 4.84667 92.4089 4.94C92.5156 5.03333 92.5689 5.15333 92.5689 5.3V18.5C92.5689 18.6467 92.5156 18.7667 92.4089 18.86C92.3156 18.9533 92.2022 19 92.0689 19H89.8089C89.6622 19 89.5422 18.9533 89.4489 18.86C89.3556 18.7667 89.3089 18.6467 89.3089 18.5V17.86C88.9889 18.2467 88.5756 18.5667 88.0689 18.82C87.5622 19.0733 86.9356 19.2 86.1889 19.2ZM87.2689 16.52C87.7222 16.52 88.0756 16.4267 88.3289 16.24C88.5956 16.04 88.7889 15.7867 88.9089 15.48C89.0422 15.1733 89.1156 14.84 89.1289 14.48C89.1422 14.2133 89.1489 13.96 89.1489 13.72C89.1489 13.48 89.1422 13.2333 89.1289 12.98C89.1156 12.6467 89.0422 12.34 88.9089 12.06C88.7756 11.7667 88.5756 11.5333 88.3089 11.36C88.0422 11.1733 87.6956 11.08 87.2689 11.08C86.8289 11.08 86.4756 11.1733 86.2089 11.36C85.9556 11.5467 85.7756 11.8 85.6689 12.12C85.5622 12.44 85.4956 12.7933 85.4689 13.18C85.4289 13.5933 85.4289 14.0067 85.4689 14.42C85.4956 14.8067 85.5622 15.16 85.6689 15.48C85.7756 15.8 85.9556 16.0533 86.2089 16.24C86.4756 16.4267 86.8289 16.52 87.2689 16.52ZM98.0461 19.2C97.3261 19.2 96.6794 19.0667 96.1061 18.8C95.5461 18.52 95.0994 18.1467 94.7661 17.68C94.4328 17.2133 94.2661 16.6867 94.2661 16.1C94.2661 15.1533 94.6528 14.4067 95.4261 13.86C96.1994 13.3 97.2261 12.92 98.5061 12.72L101.006 12.34V12.06C101.006 11.58 100.906 11.2133 100.706 10.96C100.506 10.7067 100.139 10.58 99.6061 10.58C99.2328 10.58 98.9261 10.6533 98.6861 10.8C98.4594 10.9467 98.2794 11.1467 98.1461 11.4C98.0261 11.5733 97.8594 11.66 97.6461 11.66H95.4061C95.2594 11.66 95.1461 11.62 95.0661 11.54C94.9861 11.4467 94.9528 11.34 94.9661 11.22C94.9661 10.98 95.0528 10.7067 95.2261 10.4C95.4128 10.08 95.6928 9.76667 96.0661 9.46C96.4394 9.15333 96.9194 8.9 97.5061 8.7C98.0928 8.5 98.7994 8.4 99.6261 8.4C100.493 8.4 101.233 8.5 101.846 8.7C102.459 8.9 102.953 9.18 103.326 9.54C103.713 9.9 103.999 10.3267 104.186 10.82C104.373 11.3 104.466 11.8333 104.466 12.42V18.5C104.466 18.6467 104.413 18.7667 104.306 18.86C104.213 18.9533 104.099 19 103.966 19H101.646C101.499 19 101.379 18.9533 101.286 18.86C101.193 18.7667 101.146 18.6467 101.146 18.5V17.8C100.973 18.0533 100.739 18.2867 100.446 18.5C100.153 18.7133 99.8061 18.88 99.4061 19C99.0194 19.1333 98.5661 19.2 98.0461 19.2ZM98.9861 16.92C99.3728 16.92 99.7194 16.84 100.026 16.68C100.346 16.5067 100.593 16.2467 100.766 15.9C100.953 15.54 101.046 15.0933 101.046 14.56V14.28L99.3461 14.58C98.7194 14.6867 98.2594 14.8533 97.9661 15.08C97.6861 15.2933 97.5461 15.5467 97.5461 15.84C97.5461 16.0667 97.6128 16.26 97.7461 16.42C97.8794 16.58 98.0528 16.7067 98.2661 16.8C98.4794 16.88 98.7194 16.92 98.9861 16.92Z" fill="#171717"/>
<path d="M111.643 19.2C110.523 19.2 109.576 19.02 108.803 18.66C108.043 18.3 107.456 17.7867 107.043 17.12C106.643 16.44 106.416 15.6333 106.363 14.7C106.35 14.4333 106.343 14.1333 106.343 13.8C106.343 13.4533 106.35 13.1533 106.363 12.9C106.416 11.9533 106.656 11.1467 107.083 10.48C107.51 9.81333 108.103 9.3 108.863 8.94C109.636 8.58 110.563 8.4 111.643 8.4C112.736 8.4 113.663 8.58 114.423 8.94C115.196 9.3 115.796 9.81333 116.223 10.48C116.65 11.1467 116.89 11.9533 116.943 12.9C116.956 13.1533 116.963 13.4533 116.963 13.8C116.963 14.1333 116.956 14.4333 116.943 14.7C116.89 15.6333 116.656 16.44 116.243 17.12C115.843 17.7867 115.256 18.3 114.483 18.66C113.723 19.02 112.776 19.2 111.643 19.2ZM111.643 16.76C112.243 16.76 112.676 16.58 112.943 16.22C113.223 15.86 113.383 15.32 113.423 14.6C113.436 14.4 113.443 14.1333 113.443 13.8C113.443 13.4667 113.436 13.2 113.423 13C113.383 12.2933 113.223 11.76 112.943 11.4C112.676 11.0267 112.243 10.84 111.643 10.84C111.056 10.84 110.623 11.0267 110.343 11.4C110.063 11.76 109.91 12.2933 109.883 13C109.87 13.2 109.863 13.4667 109.863 13.8C109.863 14.1333 109.87 14.4 109.883 14.6C109.91 15.32 110.063 15.86 110.343 16.22C110.623 16.58 111.056 16.76 111.643 16.76ZM119.43 19C119.283 19 119.163 18.9533 119.07 18.86C118.977 18.7667 118.93 18.6467 118.93 18.5V9.1C118.93 8.96667 118.977 8.85333 119.07 8.76C119.163 8.65333 119.283 8.6 119.43 8.6H121.73C121.877 8.6 121.997 8.65333 122.09 8.76C122.183 8.85333 122.23 8.96667 122.23 9.1V9.9C122.59 9.48667 123.017 9.16667 123.51 8.94C124.017 8.71333 124.583 8.6 125.21 8.6H126.09C126.223 8.6 126.337 8.64667 126.43 8.74C126.537 8.83333 126.59 8.95333 126.59 9.1V11.16C126.59 11.2933 126.537 11.4133 126.43 11.52C126.337 11.6133 126.223 11.66 126.09 11.66H124.15C123.603 11.66 123.177 11.8133 122.87 12.12C122.577 12.4133 122.43 12.8333 122.43 13.38V18.5C122.43 18.6467 122.377 18.7667 122.27 18.86C122.177 18.9533 122.057 19 121.91 19H119.43ZM128.512 19C128.365 19 128.245 18.9533 128.152 18.86C128.059 18.7667 128.012 18.6467 128.012 18.5V9.1C128.012 8.95333 128.059 8.83333 128.152 8.74C128.245 8.64667 128.365 8.6 128.512 8.6H130.692C130.839 8.6 130.959 8.64667 131.052 8.74C131.145 8.83333 131.192 8.95333 131.192 9.1V9.78C131.459 9.42 131.832 9.10667 132.312 8.84C132.792 8.56 133.359 8.41333 134.012 8.4C135.545 8.37333 136.599 8.95333 137.172 10.14C137.479 9.63333 137.919 9.22 138.492 8.9C139.065 8.56667 139.692 8.4 140.372 8.4C141.065 8.4 141.685 8.56 142.232 8.88C142.792 9.18667 143.239 9.66667 143.572 10.32C143.905 10.96 144.072 11.7933 144.072 12.82V18.5C144.072 18.6467 144.019 18.7667 143.912 18.86C143.819 18.9533 143.705 19 143.572 19H141.252C141.105 19 140.979 18.9533 140.872 18.86C140.779 18.7667 140.732 18.6467 140.732 18.5V12.96C140.732 12.4933 140.665 12.1267 140.532 11.86C140.399 11.58 140.219 11.38 139.992 11.26C139.765 11.14 139.505 11.08 139.212 11.08C138.972 11.08 138.732 11.14 138.492 11.26C138.265 11.38 138.079 11.58 137.932 11.86C137.799 12.1267 137.732 12.4933 137.732 12.96V18.5C137.732 18.6467 137.685 18.7667 137.592 18.86C137.499 18.9533 137.379 19 137.232 19H134.912C134.765 19 134.645 18.9533 134.552 18.86C134.459 18.7667 134.412 18.6467 134.412 18.5V12.96C134.412 12.4933 134.339 12.1267 134.192 11.86C134.045 11.58 133.859 11.38 133.632 11.26C133.405 11.14 133.152 11.08 132.872 11.08C132.632 11.08 132.392 11.14 132.152 11.26C131.925 11.38 131.739 11.58 131.592 11.86C131.459 12.1267 131.392 12.4867 131.392 12.94V18.5C131.392 18.6467 131.339 18.7667 131.232 18.86C131.139 18.9533 131.019 19 130.872 19H128.512ZM150.593 19.2C149.726 19.2 148.986 19.1067 148.373 18.92C147.773 18.72 147.279 18.48 146.893 18.2C146.519 17.92 146.239 17.6333 146.053 17.34C145.866 17.0333 145.766 16.7733 145.753 16.56C145.739 16.4133 145.786 16.2933 145.893 16.2C145.999 16.0933 146.113 16.04 146.233 16.04H148.513C148.553 16.04 148.586 16.0467 148.613 16.06C148.639 16.0733 148.679 16.1 148.733 16.14C148.906 16.2333 149.079 16.3533 149.253 16.5C149.426 16.6333 149.626 16.7533 149.853 16.86C150.079 16.9667 150.353 17.02 150.673 17.02C151.046 17.02 151.359 16.9467 151.613 16.8C151.866 16.6533 151.993 16.4333 151.993 16.14C151.993 15.9267 151.933 15.7533 151.813 15.62C151.693 15.4733 151.446 15.3333 151.073 15.2C150.713 15.0667 150.166 14.9333 149.433 14.8C148.739 14.64 148.133 14.4333 147.613 14.18C147.093 13.9133 146.693 13.5733 146.413 13.16C146.133 12.7333 145.993 12.22 145.993 11.62C145.993 11.0867 146.166 10.5733 146.513 10.08C146.859 9.58667 147.366 9.18667 148.033 8.88C148.699 8.56 149.519 8.4 150.493 8.4C151.266 8.4 151.933 8.49333 152.493 8.68C153.066 8.85333 153.546 9.08 153.933 9.36C154.333 9.64 154.633 9.92667 154.833 10.22C155.033 10.5133 155.139 10.78 155.153 11.02C155.166 11.1533 155.126 11.2733 155.033 11.38C154.939 11.4733 154.833 11.52 154.713 11.52H152.633C152.579 11.52 152.526 11.5133 152.473 11.5C152.419 11.4733 152.373 11.4467 152.333 11.42C152.173 11.34 152.013 11.2333 151.853 11.1C151.693 10.9667 151.506 10.8467 151.293 10.74C151.079 10.6333 150.813 10.58 150.493 10.58C150.133 10.58 149.853 10.66 149.653 10.82C149.453 10.98 149.353 11.1867 149.353 11.44C149.353 11.6133 149.406 11.7733 149.513 11.92C149.633 12.0667 149.866 12.2 150.213 12.32C150.573 12.44 151.126 12.5733 151.873 12.72C152.793 12.8667 153.526 13.1067 154.073 13.44C154.619 13.76 155.006 14.14 155.233 14.58C155.459 15.0067 155.573 15.46 155.573 15.94C155.573 16.58 155.379 17.1467 154.993 17.64C154.619 18.1333 154.059 18.52 153.313 18.8C152.566 19.0667 151.659 19.2 150.593 19.2Z" fill="#50A2FF"/>
<path d="M161.644 18.176C161.569 18.176 161.504 18.148 161.448 18.092C161.392 18.036 161.364 17.9707 161.364 17.896C161.364 17.8493 161.378 17.7933 161.406 17.728L166.194 6.248C166.222 6.192 166.259 6.136 166.306 6.08C166.362 6.024 166.446 5.996 166.558 5.996H167.104C167.179 5.996 167.244 6.024 167.3 6.08C167.356 6.136 167.384 6.20133 167.384 6.276C167.384 6.31333 167.375 6.36933 167.356 6.444L162.554 17.924C162.535 17.9707 162.493 18.022 162.428 18.078C162.372 18.1433 162.293 18.176 162.19 18.176H161.644Z" fill="#171717"/>
<path d="M171.76 18.48C171.653 18.48 171.56 18.4467 171.48 18.38C171.4 18.3133 171.36 18.2133 171.36 18.08V17.2C171.36 17.04 171.393 16.9133 171.46 16.82C171.54 16.7267 171.66 16.6333 171.82 16.54L177.16 12.88L171.82 9.22C171.66 9.11333 171.54 9.01333 171.46 8.92C171.393 8.82667 171.36 8.7 171.36 8.54V7.66C171.36 7.52667 171.4 7.42667 171.48 7.36C171.56 7.29333 171.653 7.26 171.76 7.26C171.84 7.26 171.927 7.28667 172.02 7.34C172.113 7.38 172.187 7.42 172.24 7.46L178.52 11.78C178.733 11.9267 178.88 12.0667 178.96 12.2C179.053 12.3333 179.1 12.5 179.1 12.7V13.04C179.1 13.2267 179.053 13.3933 178.96 13.54C178.88 13.6733 178.733 13.8133 178.52 13.96L172.24 18.28C172.187 18.32 172.113 18.3667 172.02 18.42C171.927 18.46 171.84 18.48 171.76 18.48Z" fill="#171717"/>
</svg>
